<svg 
 xmlns="http://www.w3.org/2000/svg"
 xmlns:xlink="http://www.w3.org/1999/xlink"
 width="16px" height="22px">
<path fill-rule="evenodd"  fill="rgb(226, 80, 80)"
 d="M15.972,4.354 L-0.000,4.354 L0.016,2.645 L1.291,2.645 L3.993,-0.000 L12.090,-0.000 L14.736,2.645 L16.012,2.645 L15.972,4.354 ZM9.372,1.763 L6.710,1.763 L6.710,2.645 L9.372,2.645 L9.372,1.763 ZM14.546,11.463 L11.544,11.463 C10.882,10.181 9.554,9.295 8.005,9.295 C6.455,9.295 5.127,10.181 4.465,11.463 L1.517,11.463 L0.943,5.290 L15.140,5.290 L14.546,11.463 ZM5.823,13.226 C5.823,12.009 6.816,11.022 8.042,11.022 C9.267,11.022 10.260,12.009 10.260,13.226 C10.260,14.444 9.267,15.431 8.042,15.431 C6.816,15.431 5.823,14.444 5.823,13.226 ZM8.005,17.231 C9.599,17.231 10.964,16.296 11.604,14.953 L14.210,14.953 L13.532,21.989 L2.495,21.989 L1.841,14.953 L4.405,14.953 C5.045,16.296 6.410,17.231 8.005,17.231 Z"/>
</svg>