<svg 
 xmlns="http://www.w3.org/2000/svg"
 xmlns:xlink="http://www.w3.org/1999/xlink"
 width="26px" height="22px">
<path fill-rule="evenodd"  fill="rgb(226, 80, 80)"
 d="M20.429,8.228 C16.839,8.228 13.929,11.124 13.929,14.695 C13.929,16.730 14.875,18.543 16.352,19.728 C14.442,21.128 13.000,22.009 13.000,22.009 C13.000,22.009 -0.000,14.079 -0.000,7.689 C-0.000,3.840 2.399,-0.010 6.964,-0.010 C11.143,-0.010 13.000,3.927 13.000,3.927 C13.000,3.927 14.625,-0.010 19.035,-0.010 C23.446,-0.010 25.922,3.763 25.922,7.689 C25.922,8.567 25.669,9.471 25.257,10.377 C24.067,9.061 22.348,8.228 20.429,8.228 ZM20.429,9.152 C23.506,9.152 26.000,11.634 26.000,14.695 C26.000,17.757 23.506,20.239 20.429,20.239 C17.351,20.239 14.857,17.757 14.857,14.695 C14.857,11.634 17.351,9.152 20.429,9.152 ZM17.643,15.619 L19.500,15.619 L19.500,17.467 L21.357,17.467 L21.357,15.619 L23.214,15.619 L23.214,13.772 L21.357,13.772 L21.357,11.924 L19.500,11.924 L19.500,13.772 L17.643,13.772 L17.643,15.619 Z"/>
</svg>