<svg 
 xmlns="http://www.w3.org/2000/svg"
 xmlns:xlink="http://www.w3.org/1999/xlink"
 width="20px" height="23px">
<path fill-rule="evenodd"  fill="rgb(226, 80, 80)"
 d="M15.564,23.005 C13.112,23.005 11.124,21.014 11.124,18.557 C11.124,16.101 13.112,14.110 15.564,14.110 C18.017,14.110 20.005,16.101 20.005,18.557 C20.005,21.014 18.017,23.005 15.564,23.005 ZM18.283,17.257 C17.969,16.995 17.460,16.995 17.146,17.257 L14.866,19.160 L14.442,18.736 C14.187,18.481 13.774,18.481 13.519,18.736 C13.264,18.992 13.264,19.405 13.519,19.661 L14.100,20.242 C14.131,20.365 14.189,20.484 14.303,20.579 C14.464,20.713 14.675,20.776 14.885,20.773 C14.962,20.775 15.036,20.761 15.109,20.737 C15.230,20.705 15.345,20.658 15.440,20.579 L18.283,18.206 C18.597,17.944 18.597,17.519 18.283,17.257 ZM9.635,18.557 C9.635,19.970 10.148,21.250 10.970,22.269 L1.482,22.269 C0.663,22.269 -0.000,21.604 -0.000,20.784 L-0.000,4.454 C-0.000,3.634 0.663,2.969 1.482,2.969 L5.188,2.969 L5.188,4.825 C5.188,5.439 5.464,5.938 5.806,5.938 L11.982,5.938 C12.323,5.938 12.600,5.439 12.600,4.825 L12.600,2.969 L16.306,2.969 C17.124,2.969 17.788,3.634 17.788,4.454 L17.788,13.059 C17.100,12.780 16.352,12.619 15.564,12.619 C12.290,12.619 9.635,15.278 9.635,18.557 ZM11.117,5.196 L6.670,5.196 C6.261,5.196 5.929,4.863 5.929,4.454 L5.929,2.969 C5.929,2.559 6.261,2.226 6.670,2.226 L6.715,2.226 C6.686,2.107 6.670,1.983 6.670,1.856 C6.670,0.831 7.666,-0.000 8.894,-0.000 C10.122,-0.000 11.117,0.831 11.117,1.856 C11.117,1.983 11.102,2.107 11.072,2.226 L11.117,2.226 C11.527,2.226 11.858,2.559 11.858,2.969 L11.858,4.454 C11.858,4.863 11.527,5.196 11.117,5.196 ZM9.635,1.484 L8.153,1.484 L8.153,2.969 L9.635,2.969 L9.635,1.484 Z"/>
</svg>