<svg 
 xmlns="http://www.w3.org/2000/svg"
 xmlns:xlink="http://www.w3.org/1999/xlink"
 width="19px" height="23px">
<path fill-rule="evenodd"  fill="rgb(226, 80, 80)"
 d="M15.200,7.660 C14.449,7.660 13.770,7.375 13.239,6.921 C13.978,6.103 14.440,5.026 14.440,3.833 C14.440,3.102 14.255,2.421 13.955,1.807 C14.336,1.634 14.755,1.533 15.200,1.533 C16.880,1.533 18.243,2.904 18.243,4.596 C18.243,6.288 16.880,7.660 15.200,7.660 ZM9.880,7.666 C7.781,7.666 6.080,5.950 6.080,3.833 C6.080,1.716 7.781,-0.000 9.880,-0.000 C11.978,-0.000 13.680,1.716 13.680,3.833 C13.680,5.950 11.978,7.666 9.880,7.666 ZM6.521,6.921 C5.990,7.375 5.311,7.660 4.560,7.660 C2.879,7.660 1.517,6.288 1.517,4.596 C1.517,2.904 2.879,1.533 4.560,1.533 C5.005,1.533 5.424,1.634 5.805,1.807 C5.504,2.421 5.320,3.102 5.320,3.833 C5.320,5.026 5.782,6.103 6.521,6.921 ZM4.560,15.333 L6.080,16.355 L6.080,20.700 C6.080,20.700 5.070,21.466 4.180,21.466 C3.279,21.466 2.280,20.700 2.280,20.700 L2.280,16.100 L0.760,14.566 L-0.000,9.200 C-0.000,9.200 2.066,8.541 3.802,8.451 L4.560,15.333 ZM4.560,9.200 C4.560,9.200 7.593,8.433 9.880,8.433 C12.153,8.433 15.200,9.200 15.200,9.200 L14.440,15.333 L12.160,16.866 L12.160,22.233 C12.160,22.233 11.013,23.000 9.880,23.000 C8.733,23.000 7.600,22.233 7.600,22.233 L7.600,16.866 L5.320,15.333 L4.560,9.200 ZM15.949,8.532 C17.474,8.758 19.000,9.313 19.000,9.313 L18.403,14.715 L16.720,16.100 L16.720,20.700 C16.720,20.700 15.710,21.466 14.820,21.466 C13.919,21.466 12.920,20.700 12.920,20.700 L12.920,16.866 L15.200,15.333 L15.949,8.532 Z"/>
</svg>